# xmcd
#
# Track frame offsets:
# 182
# 24337
# 66157
# 85887
# 127532
# 154877
# 203807
# 225965
# 260897
# 287430
#
# Disc length: 4379 seconds
#
#
# Revision: 2
# Processed by: cddbd v1.5.1PL2 Copyright (c) Steve Scherf et al.
# Submitted via: FreeRIP 2.944 
#
DISCID=7a11190a
DTITLE=Luther Allison - Live In Paris
DYEAR=1979
DGENRE=Bluesrock
TTITLE0=Crazy Jealous
TTITLE1=Sweet Little Angel
TTITLE2=My Babe
TTITLE3=The Thrill Is Gone
TTITLE4=Early In The Morning
TTITLE5=Tribute To Hound Dog
TTITLE6=Luther's Shuffle
TTITLE7=I Can't Quit You Babe
TTITLE8=I'm Leavin'
TTITLE9=Rock Me Baby
EXTD=
EXTT0=
EXTT1=
EXTT2=
EXTT3=
EXTT4=
EXTT5=
EXTT6=
EXTT7=
EXTT8=
EXTT9=
PLAYORDER=
